<svg viewBox="0 0 600 400" xmlns="http://www.w3.org/2000/svg">
<g transform="translate(72, 364)">
<g>
<rect fill="red" height="309.0909090909091" stroke="black" width="240" x="120" y="-309.0909090909091"/>
</g>
<g>
<rect fill="red" height="214.3406465505855" stroke="black" width="240" x="120" y="-214.3406465505855"/>
</g>
<g>
<g>
<line stroke="black" stroke-width="1" x1="240" x2="240" y1="0" y2="10"/>
</g>
<line stroke="black" stroke-width="1" x1="0" x2="480" y1="0" y2="0"/>
<g>
<text font-size="12" text-anchor="middle" x="240" y="20">
57961.95
</text>
</g>
<text font-size="12" text-anchor="middle" x="240" y="30">
BTC-USD
</text>
</g>
<g>
<g>
<line stroke="black" stroke-width="1" x1="0" x2="-10" y1="-0" y2="-0"/>
<line stroke="black" stroke-width="1" x1="0" x2="-10" y1="-59.60820506852884" y2="-59.60820506852884"/>
<line stroke="black" stroke-width="1" x1="0" x2="-10" y1="-119.21641013705768" y2="-119.21641013705768"/>
<line stroke="black" stroke-width="1" x1="0" x2="-10" y1="-178.8246152055865" y2="-178.8246152055865"/>
<line stroke="black" stroke-width="1" x1="0" x2="-10" y1="-238.43282027411536" y2="-238.43282027411536"/>
<line stroke="black" stroke-width="1" x1="0" x2="-10" y1="-298.04102534264416" y2="-298.04102534264416"/>
</g>
<line stroke="black" stroke-width="1" x1="0" x2="0" y1="0" y2="-340"/>
<g>
<text dominant-baseline="middle" font-size="12" text-anchor="end" x="-15" y="-0">
0
</text>
<text dominant-baseline="middle" font-size="12" text-anchor="end" x="-15" y="-59.60820506852884">
0.4
</text>
<text dominant-baseline="middle" font-size="12" text-anchor="end" x="-15" y="-119.21641013705768">
0.8
</text>
<text dominant-baseline="middle" font-size="12" text-anchor="end" x="-15" y="-178.8246152055865">
1.2
</text>
<text dominant-baseline="middle" font-size="12" text-anchor="end" x="-15" y="-238.43282027411536">
1.6
</text>
<text dominant-baseline="middle" font-size="12" text-anchor="end" x="-15" y="-298.04102534264416">
2
</text>
</g>
<text font-size="12" text-anchor="middle" transform="rotate(-90 -36 -170)" x="-36" y="-182">

</text>
</g>
</g>
</svg>