<svg viewBox="0 0 600 400" xmlns="http://www.w3.org/2000/svg">
<g transform="translate(72, 364)">
<g>
<rect fill="darkolivegreen" height="103.63500902613151" stroke="black" width="48" x="24" y="-103.63500902613151"/>
</g>
<g>
<rect fill="darkolivegreen" height="213.8803145197807" stroke="black" width="48" x="120" y="-213.8803145197807"/>
</g>
<g>
<rect fill="darkolivegreen" height="27.527724626870885" stroke="black" width="48" x="216" y="-27.527724626870885"/>
</g>
<g>
<rect fill="darkolivegreen" height="309.09090909090907" stroke="black" width="48" x="312" y="-309.09090909090907"/>
</g>
<g>
<rect fill="darkolivegreen" height="48.47530372920338" stroke="black" width="48" x="408" y="-48.47530372920338"/>
</g>
<g>
<g>
<line stroke="black" stroke-width="1" x1="48" x2="48" y1="0" y2="10"/>
<line stroke="black" stroke-width="1" x1="144" x2="144" y1="0" y2="10"/>
<line stroke="black" stroke-width="1" x1="240" x2="240" y1="0" y2="10"/>
<line stroke="black" stroke-width="1" x1="336" x2="336" y1="0" y2="10"/>
<line stroke="black" stroke-width="1" x1="432" x2="432" y1="0" y2="10"/>
</g>
<line stroke="black" stroke-width="1" x1="0" x2="480" y1="0" y2="0"/>
<g>
<text font-size="12" text-anchor="middle" x="48" y="20">
56514.42
</text>
<text font-size="12" text-anchor="middle" x="144" y="20">
56511.10
</text>
<text font-size="12" text-anchor="middle" x="240" y="20">
56520.38
</text>
<text font-size="12" text-anchor="middle" x="336" y="20">
56527.41
</text>
<text font-size="12" text-anchor="middle" x="432" y="20">
56530.16
</text>
</g>
<text font-size="12" text-anchor="middle" x="240" y="30">
BTC-USD
</text>
</g>
<g>
<g>
<line stroke="black" stroke-width="1" x1="0" x2="-10" y1="-0" y2="-0"/>
<line stroke="black" stroke-width="1" x1="0" x2="-10" y1="-92.67814184682238" y2="-92.67814184682238"/>
<line stroke="black" stroke-width="1" x1="0" x2="-10" y1="-185.35628369364477" y2="-185.35628369364477"/>
<line stroke="black" stroke-width="1" x1="0" x2="-10" y1="-278.03442554046717" y2="-278.03442554046717"/>
</g>
<line stroke="black" stroke-width="1" x1="0" x2="0" y1="0" y2="-340"/>
<g>
<text dominant-baseline="middle" font-size="12" text-anchor="end" x="-15" y="-0">
0
</text>
<text dominant-baseline="middle" font-size="12" text-anchor="end" x="-15" y="-92.67814184682238">
0.4
</text>
<text dominant-baseline="middle" font-size="12" text-anchor="end" x="-15" y="-185.35628369364477">
0.8
</text>
<text dominant-baseline="middle" font-size="12" text-anchor="end" x="-15" y="-278.03442554046717">
1.2
</text>
</g>
<text font-size="12" text-anchor="middle" transform="rotate(-90 -36 -170)" x="-36" y="-182">

</text>
</g>
</g>
</svg>