<svg viewBox="0 0 600 400" xmlns="http://www.w3.org/2000/svg">
<g transform="translate(72, 364)">
<g>
<rect fill="darkolivegreen" height="13.791915003905508" stroke="black" width="80" x="40" y="-13.791915003905508"/>
</g>
<g>
<rect fill="darkolivegreen" height="309.09090909090907" stroke="black" width="80" x="200" y="-309.09090909090907"/>
</g>
<g>
<rect fill="darkolivegreen" height="23.004483236139222" stroke="black" width="80" x="360" y="-23.004483236139222"/>
</g>
<g>
<g>
<line stroke="black" stroke-width="1" x1="80" x2="80" y1="0" y2="10"/>
<line stroke="black" stroke-width="1" x1="240" x2="240" y1="0" y2="10"/>
<line stroke="black" stroke-width="1" x1="400" x2="400" y1="0" y2="10"/>
</g>
<line stroke="black" stroke-width="1" x1="0" x2="480" y1="0" y2="0"/>
<g>
<text font-size="12" text-anchor="middle" x="80" y="20">
57151.91
</text>
<text font-size="12" text-anchor="middle" x="240" y="20">
57150.00
</text>
<text font-size="12" text-anchor="middle" x="400" y="20">
57152.37
</text>
</g>
<text font-size="12" text-anchor="middle" x="240" y="30">
BTC-USD
</text>
</g>
<g>
<g>
<line stroke="black" stroke-width="1" x1="0" x2="-10" y1="-0" y2="-0"/>
<line stroke="black" stroke-width="1" x1="0" x2="-10" y1="-59.86074323272253" y2="-59.86074323272253"/>
<line stroke="black" stroke-width="1" x1="0" x2="-10" y1="-119.72148646544505" y2="-119.72148646544505"/>
<line stroke="black" stroke-width="1" x1="0" x2="-10" y1="-179.58222969816757" y2="-179.58222969816757"/>
<line stroke="black" stroke-width="1" x1="0" x2="-10" y1="-239.4429729308901" y2="-239.4429729308901"/>
<line stroke="black" stroke-width="1" x1="0" x2="-10" y1="-299.30371616361265" y2="-299.30371616361265"/>
</g>
<line stroke="black" stroke-width="1" x1="0" x2="0" y1="0" y2="-340"/>
<g>
<text dominant-baseline="middle" font-size="12" text-anchor="end" x="-15" y="-0">
0
</text>
<text dominant-baseline="middle" font-size="12" text-anchor="end" x="-15" y="-59.86074323272253">
0.5
</text>
<text dominant-baseline="middle" font-size="12" text-anchor="end" x="-15" y="-119.72148646544505">
1
</text>
<text dominant-baseline="middle" font-size="12" text-anchor="end" x="-15" y="-179.58222969816757">
1.5
</text>
<text dominant-baseline="middle" font-size="12" text-anchor="end" x="-15" y="-239.4429729308901">
2
</text>
<text dominant-baseline="middle" font-size="12" text-anchor="end" x="-15" y="-299.30371616361265">
2.5
</text>
</g>
<text font-size="12" text-anchor="middle" transform="rotate(-90 -36 -170)" x="-36" y="-182">

</text>
</g>
</g>
</svg>